<svg width="962" height="899" viewBox="0 0 962 899" fill="none" xmlns="http://www.w3.org/2000/svg">
<rect x="544" y="568" width="262" height="544" transform="rotate(90 544 568)" fill="white"/>
<rect x="544" y="568" width="262" height="544" transform="rotate(90 544 568)" fill="white"/>
<rect x="544" y="568" width="262" height="544" transform="rotate(90 544 568)" fill="white"/>
<rect x="544" y="568" width="262" height="544" transform="rotate(90 544 568)" fill="white"/>
<rect width="262" height="830" fill="white"/>
<rect width="262" height="830" fill="white"/>
<rect width="262" height="830" fill="white"/>
<rect width="262" height="830" fill="white"/>
<path d="M721.823 317.944C729.725 347.436 731.742 378.195 727.756 408.466C723.771 438.738 713.862 467.927 698.596 494.369C683.33 520.811 663.005 543.987 638.782 562.574C614.559 581.161 586.913 594.795 557.421 602.697C527.929 610.599 497.169 612.615 466.898 608.63C436.627 604.645 407.437 594.736 380.995 579.47C354.554 564.204 331.378 543.879 312.791 519.656C294.204 495.433 280.57 467.787 272.668 438.295C264.765 408.803 262.749 378.043 266.734 347.772C270.72 317.501 280.628 288.311 295.894 261.869C311.161 235.427 331.485 212.251 355.708 193.664C379.931 175.078 407.578 161.444 437.07 153.541C466.562 145.639 497.322 143.623 527.593 147.608C557.864 151.593 587.054 161.502 613.495 176.768C639.937 192.034 663.113 212.359 681.7 236.582C700.287 260.805 713.921 288.452 721.823 317.944L721.823 317.944Z" stroke="white" stroke-width="67"/>
<path d="M943.455 642.452C973.448 602.815 965.628 546.369 925.991 516.377C886.354 486.385 829.908 494.204 799.916 533.841L943.455 642.452ZM546.909 566.507L564.01 602.853L726.882 526.219L709.781 489.873L546.909 566.507ZM564.01 602.853C635.372 754.521 842.316 776.118 943.455 642.452L799.916 533.841C780.449 559.568 740.618 555.411 726.882 526.219L564.01 602.853Z" fill="white"/>
<circle cx="497.245" cy="378.119" r="171" transform="rotate(-15 497.245 378.119)" fill="white" stroke="#00B2FF" stroke-width="123"/>
<path d="M628.345 528.19L645.446 564.536C687.995 654.966 811.382 667.843 871.686 588.146V588.146" stroke="#00B2FF" stroke-width="123" stroke-linecap="round"/>
</svg>
